# xmcd
#
# Track frame offsets:
#	150
#	15421
#	28020
#	49357
#	63767
#	80779
#	98357
#	112657
#	126307
#	144502
#	160934
#	173628
#	190617
#	207116
#	223513
#	244167
#	260233
#	278008
#	294013
#	308534
#
# Disc length: 4364 seconds
#
# Revision: 1
# Processed by: cddbd v1.5.2PL0 Copyright (c) Steve Scherf et al.
# Submitted via: dBpowerAMP V4.0
#
DISCID=0b110a14
DTITLE=Various Artist - Hott Urban Volume 27 Can
DYEAR=2017
DGENRE=Urban
TTITLE0=DJ Khaled ft. Rihanna And Bryson Tiller - Wild Thoughts
TTITLE1=Dej Loaf - No Fear
TTITLE2=Jay-Z - 4:44
TTITLE3=Tee Grizzley - No Effort
TTITLE4=Kendrick Lamar ft. Rihanna - Loyalty.
TTITLE5=Drake - Signs
TTITLE6=Travi$ Scott - Butterfly Effect
TTITLE7=TY Dolla $ign ft. Lil Wayne And The-Dream - Love U Better
TTITLE8=Metro Boomin ft. Offset And Drake - No Complaints
TTITLE9=Gucci Mane ft. Chris Brown - Tone It Down
TTITLE10=Bryson Tiller - Run Me Dry
TTITLE11=Bruno Mars vs. David Guetta - Versace On The Floor [Radio Edit]
TTITLE12=Cardi B - Bodak Yellow
TTITLE13=Young Greatness - We Rollin'
TTITLE14=Yo Gotti ft. Nicki Minaj - Rake It Up
TTITLE15=Lecrae ft. 1k Phew - Hammer Time
TTITLE16=Willtharapper - Pull Up Hop Out
TTITLE17=Maxwell - Gods
TTITLE18=Blac Youngsta ft. Lil Yachty - Hip Hopper
TTITLE19=Logic ft. Alessia Cara And Khalid - 1-800-273-8255
EXTD=
EXTT0=
EXTT1=
EXTT2=
EXTT3=
EXTT4=
EXTT5=
EXTT6=
EXTT7=
EXTT8=
EXTT9=
EXTT10=
EXTT11=
EXTT12=
EXTT13=
EXTT14=
EXTT15=
EXTT16=
EXTT17=
EXTT18=
EXTT19=
PLAYORDER=
